<svg xmlns="http://www.w3.org/2000/svg" id="export" class="canvas" preserveAspectRatio="xMidYMid meet" style="" width="139" height="1022"><rect id="background" fill="#fff" pointer-events="all" width="139" height="1022"/><g id="origin" transform="translate(6.3044921875, 6.3044921875) scale(1)"><g id="clusters" class="clusters"/><g id="edge-paths" class="edge-paths" style="pointer-events: none;"><defs><marker id="arrowhead" viewBox="0 0 10 10" refX="9" refY="5" markerUnits="strokeWidth" markerWidth="8" markerHeight="6" orient="auto" style="fill: rgb(0, 0, 0);"><path d="M 0 0 L 10 5 L 0 10 L 4 5 z" style="stroke-width: 1;"/></marker><marker id="arrowhead-select" viewBox="0 0 10 10" refX="9" refY="5" markerUnits="strokeWidth" markerWidth="8" markerHeight="6" orient="auto" style="fill: rgba(220, 0, 0, 0.9);"><path d="M 0 0 L 10 5 L 0 10 L 4 5 z" style="stroke-width: 1;"/></marker><marker id="arrowhead-hover" viewBox="0 0 10 10" refX="9" refY="5" markerUnits="strokeWidth" markerWidth="8" markerHeight="6" orient="auto" style="fill: rgba(220, 0, 0, 0.9);"><path d="M 0 0 L 10 5 L 0 10 L 4 5 z" style="stroke-width: 1;"/></marker></defs><path id="edge-serving_default_input_1:0&#10;0" class="edge-path" d="M52.078125,20L52.078125,21.666666666666668C52.078125,23.333333333333332,52.078125,26.666666666666668,52.078125,31.75C52.078125,36.833333333333336,52.078125,43.666666666666664,52.078125,50.5C52.078125,57.333333333333336,52.078125,64.16666666666667,52.078125,69.25C52.078125,74.33333333333333,52.078125,77.66666666666667,52.078125,79.33333333333333L52.078125,81" style="stroke: rgb(0, 0, 0); stroke-width: 1px; fill: none; marker-end: url(&quot;#arrowhead&quot;);"/><path id="edge-sequential/activation/Relu;sequential/batch_normalization/FusedBatchNormV3;sequential/conv2d/BiasAdd/ReadVariableOp;sequential/conv2d/BiasAdd;sequential/conv2d_4/Conv2D;sequential/conv2d/Conv2D1&#10;14" class="edge-path" d="M52.078125,151L52.078125,154.41666666666666C52.078125,157.83333333333334,52.078125,164.66666666666666,52.078125,171.5C52.078125,178.33333333333334,52.078125,185.16666666666666,52.078125,188.58333333333334L52.078125,192" style="stroke: rgb(0, 0, 0); stroke-width: 1px; fill: none; marker-end: url(&quot;#arrowhead&quot;);"/><path id="edge-sequential/activation_1/Relu;sequential/batch_normalization_1/FusedBatchNormV3;sequential/conv2d_1/BiasAdd/ReadVariableOp;sequential/conv2d_1/BiasAdd;sequential/conv2d_4/Conv2D;sequential/conv2d_1/Conv2D1&#10;15" class="edge-path" d="M52.078125,262L52.078125,265.4166666666667C52.078125,268.8333333333333,52.078125,275.6666666666667,52.078125,282.5C52.078125,289.3333333333333,52.078125,296.1666666666667,52.078125,299.5833333333333L52.078125,303" style="stroke: rgb(0, 0, 0); stroke-width: 1px; fill: none; marker-end: url(&quot;#arrowhead&quot;);"/><path id="edge-sequential/activation_2/Relu;sequential/batch_normalization_2/FusedBatchNormV3;sequential/conv2d_2/BiasAdd/ReadVariableOp;sequential/conv2d_2/BiasAdd;sequential/conv2d_4/Conv2D;sequential/conv2d_2/Conv2D1&#10;16" class="edge-path" d="M52.078125,373L52.078125,376.4166666666667C52.078125,379.8333333333333,52.078125,386.6666666666667,52.078125,393.5C52.078125,400.3333333333333,52.078125,407.1666666666667,52.078125,410.5833333333333L52.078125,414" style="stroke: rgb(0, 0, 0); stroke-width: 1px; fill: none; marker-end: url(&quot;#arrowhead&quot;);"/><path id="edge-sequential/max_pooling2d/MaxPool&#10;17" class="edge-path" d="M52.078125,434L52.078125,437.4166666666667C52.078125,440.8333333333333,52.078125,447.6666666666667,52.078125,454.5C52.078125,461.3333333333333,52.078125,468.1666666666667,52.078125,471.5833333333333L52.078125,475" style="stroke: rgb(0, 0, 0); stroke-width: 1px; fill: none; marker-end: url(&quot;#arrowhead&quot;);"/><path id="edge-sequential/activation_3/Relu;sequential/batch_normalization_3/FusedBatchNormV3;sequential/conv2d_3/BiasAdd/ReadVariableOp;sequential/conv2d_3/BiasAdd;sequential/conv2d_3/Conv2D1&#10;18" class="edge-path" d="M52.078125,545L52.078125,548.4166666666666C52.078125,551.8333333333334,52.078125,558.6666666666666,52.078125,565.5C52.078125,572.3333333333334,52.078125,579.1666666666666,52.078125,582.5833333333334L52.078125,586" style="stroke: rgb(0, 0, 0); stroke-width: 1px; fill: none; marker-end: url(&quot;#arrowhead&quot;);"/><path id="edge-sequential/max_pooling2d_1/MaxPool&#10;19" class="edge-path" d="M52.078125,606L52.078125,609.4166666666666C52.078125,612.8333333333334,52.078125,619.6666666666666,52.078125,626.5C52.078125,633.3333333333334,52.078125,640.1666666666666,52.078125,643.5833333333334L52.078125,647" style="stroke: rgb(0, 0, 0); stroke-width: 1px; fill: none; marker-end: url(&quot;#arrowhead&quot;);"/><path id="edge-sequential/activation_4/Relu;sequential/batch_normalization_4/FusedBatchNormV3;sequential/conv2d_4/BiasAdd/ReadVariableOp;sequential/conv2d_4/BiasAdd;sequential/conv2d_4/Conv2D1&#10;20" class="edge-path" d="M52.078125,717L52.078125,720.4166666666666C52.078125,723.8333333333334,52.078125,730.6666666666666,52.078125,737.5C52.078125,744.3333333333334,52.078125,751.1666666666666,52.078125,754.5833333333334L52.078125,758" style="stroke: rgb(0, 0, 0); stroke-width: 1px; fill: none; marker-end: url(&quot;#arrowhead&quot;);"/><path id="edge-sequential/max_pooling2d_2/MaxPool&#10;21" class="edge-path" d="M52.078125,778L52.078125,781.4166666666666C52.078125,784.8333333333334,52.078125,791.6666666666666,52.078125,798.5C52.078125,805.3333333333334,52.078125,812.1666666666666,52.078125,815.5833333333334L52.078125,819" style="stroke: rgb(0, 0, 0); stroke-width: 1px; fill: none; marker-end: url(&quot;#arrowhead&quot;);"/><path id="edge-sequential/flatten/Reshape&#10;22" class="edge-path" d="M52.078125,857L52.078125,860.4166666666666C52.078125,863.8333333333334,52.078125,870.6666666666666,52.078125,877.5C52.078125,884.3333333333334,52.078125,891.1666666666666,52.078125,894.5833333333334L52.078125,898" style="stroke: rgb(0, 0, 0); stroke-width: 1px; fill: none; marker-end: url(&quot;#arrowhead&quot;);"/><path id="edge-StatefulPartitionedCall:0&#10;23" class="edge-path" d="M52.078125,948L52.078125,951.4166666666666C52.078125,954.8333333333334,52.078125,961.6666666666666,52.078125,968.5C52.078125,975.3333333333334,52.078125,982.1666666666666,52.078125,985.5833333333334L52.078125,989" style="stroke: rgb(0, 0, 0); stroke-width: 1px; fill: none; marker-end: url(&quot;#arrowhead&quot;);"/></g><g id="edge-labels" class="edge-labels"><text class="edge-label" id="edge-label-edge-serving_default_input_1:0&#10;0" style="opacity: 1; font-family: -apple-system, BlinkMacSystemFont, &quot;Segoe WPC&quot;, &quot;Segoe UI&quot;, Ubuntu, &quot;Droid Sans&quot;, sans-serif, &quot;PingFang SC&quot;; font-size: 10px;" transform="translate(57.078125,45)"><tspan xml:space="preserve" dy="1em" x="1">?×112×112×3</tspan></text><text class="edge-label" id="edge-label-edge-sequential/activation/Relu;sequential/batch_normalization/FusedBatchNormV3;sequential/conv2d/BiasAdd/ReadVariableOp;sequential/conv2d/BiasAdd;sequential/conv2d_4/Conv2D;sequential/conv2d/Conv2D1&#10;14" style="opacity: 1; font-family: -apple-system, BlinkMacSystemFont, &quot;Segoe WPC&quot;, &quot;Segoe UI&quot;, Ubuntu, &quot;Droid Sans&quot;, sans-serif, &quot;PingFang SC&quot;; font-size: 10px;" transform="translate(57.078125,166)"><tspan xml:space="preserve" dy="1em" x="1">?×110×110×32</tspan></text><text class="edge-label" id="edge-label-edge-sequential/activation_1/Relu;sequential/batch_normalization_1/FusedBatchNormV3;sequential/conv2d_1/BiasAdd/ReadVariableOp;sequential/conv2d_1/BiasAdd;sequential/conv2d_4/Conv2D;sequential/conv2d_1/Conv2D1&#10;15" style="opacity: 1; font-family: -apple-system, BlinkMacSystemFont, &quot;Segoe WPC&quot;, &quot;Segoe UI&quot;, Ubuntu, &quot;Droid Sans&quot;, sans-serif, &quot;PingFang SC&quot;; font-size: 10px;" transform="translate(57.078125,277)"><tspan xml:space="preserve" dy="1em" x="1">?×108×108×32</tspan></text><text class="edge-label" id="edge-label-edge-sequential/activation_2/Relu;sequential/batch_normalization_2/FusedBatchNormV3;sequential/conv2d_2/BiasAdd/ReadVariableOp;sequential/conv2d_2/BiasAdd;sequential/conv2d_4/Conv2D;sequential/conv2d_2/Conv2D1&#10;16" style="opacity: 1; font-family: -apple-system, BlinkMacSystemFont, &quot;Segoe WPC&quot;, &quot;Segoe UI&quot;, Ubuntu, &quot;Droid Sans&quot;, sans-serif, &quot;PingFang SC&quot;; font-size: 10px;" transform="translate(57.078125,388)"><tspan xml:space="preserve" dy="1em" x="1">?×52×52×32</tspan></text><text class="edge-label" id="edge-label-edge-sequential/max_pooling2d/MaxPool&#10;17" style="opacity: 1; font-family: -apple-system, BlinkMacSystemFont, &quot;Segoe WPC&quot;, &quot;Segoe UI&quot;, Ubuntu, &quot;Droid Sans&quot;, sans-serif, &quot;PingFang SC&quot;; font-size: 10px;" transform="translate(57.078125,449)"><tspan xml:space="preserve" dy="1em" x="1">?×26×26×32</tspan></text><text class="edge-label" id="edge-label-edge-sequential/activation_3/Relu;sequential/batch_normalization_3/FusedBatchNormV3;sequential/conv2d_3/BiasAdd/ReadVariableOp;sequential/conv2d_3/BiasAdd;sequential/conv2d_3/Conv2D1&#10;18" style="opacity: 1; font-family: -apple-system, BlinkMacSystemFont, &quot;Segoe WPC&quot;, &quot;Segoe UI&quot;, Ubuntu, &quot;Droid Sans&quot;, sans-serif, &quot;PingFang SC&quot;; font-size: 10px;" transform="translate(57.078125,560)"><tspan xml:space="preserve" dy="1em" x="1">?×24×24×64</tspan></text><text class="edge-label" id="edge-label-edge-sequential/max_pooling2d_1/MaxPool&#10;19" style="opacity: 1; font-family: -apple-system, BlinkMacSystemFont, &quot;Segoe WPC&quot;, &quot;Segoe UI&quot;, Ubuntu, &quot;Droid Sans&quot;, sans-serif, &quot;PingFang SC&quot;; font-size: 10px;" transform="translate(57.078125,621)"><tspan xml:space="preserve" dy="1em" x="1">?×12×12×64</tspan></text><text class="edge-label" id="edge-label-edge-sequential/activation_4/Relu;sequential/batch_normalization_4/FusedBatchNormV3;sequential/conv2d_4/BiasAdd/ReadVariableOp;sequential/conv2d_4/BiasAdd;sequential/conv2d_4/Conv2D1&#10;20" style="opacity: 1; font-family: -apple-system, BlinkMacSystemFont, &quot;Segoe WPC&quot;, &quot;Segoe UI&quot;, Ubuntu, &quot;Droid Sans&quot;, sans-serif, &quot;PingFang SC&quot;; font-size: 10px;" transform="translate(57.078125,732)"><tspan xml:space="preserve" dy="1em" x="1">?×12×12×32</tspan></text><text class="edge-label" id="edge-label-edge-sequential/max_pooling2d_2/MaxPool&#10;21" style="opacity: 1; font-family: -apple-system, BlinkMacSystemFont, &quot;Segoe WPC&quot;, &quot;Segoe UI&quot;, Ubuntu, &quot;Droid Sans&quot;, sans-serif, &quot;PingFang SC&quot;; font-size: 10px;" transform="translate(57.078125,793)"><tspan xml:space="preserve" dy="1em" x="1">?×6×6×32</tspan></text><text class="edge-label" id="edge-label-edge-sequential/flatten/Reshape&#10;22" style="opacity: 1; font-family: -apple-system, BlinkMacSystemFont, &quot;Segoe WPC&quot;, &quot;Segoe UI&quot;, Ubuntu, &quot;Droid Sans&quot;, sans-serif, &quot;PingFang SC&quot;; font-size: 10px;" transform="translate(57.078125,872)"><tspan xml:space="preserve" dy="1em" x="1">?×1152</tspan></text><text class="edge-label" id="edge-label-edge-StatefulPartitionedCall:0&#10;23" style="opacity: 1; font-family: -apple-system, BlinkMacSystemFont, &quot;Segoe WPC&quot;, &quot;Segoe UI&quot;, Ubuntu, &quot;Droid Sans&quot;, sans-serif, &quot;PingFang SC&quot;; font-size: 10px;" transform="translate(57.078125,963)"><tspan xml:space="preserve" dy="1em" x="1">?×256</tspan></text></g><g id="nodes" class="nodes"><g id="input-name-input_1" class="node graph-input" style="" transform="translate(27.03125,0)"><g class="node-item graph-item-input" transform="translate(0,0)"><path d="M5,0h40.09375a5,5 0 0 1 5,5v10a5,5 0 0 1 -5,5h-40.09375a5,5 0 0 1 -5,-5v-10a5,5 0 0 1 5,-5z" style="stroke: rgb(0, 0, 0); fill: rgb(238, 238, 238); stroke-width: 0;"/><text x="6" y="13" style="font-family: -apple-system, BlinkMacSystemFont, &quot;Segoe WPC&quot;, &quot;Segoe UI&quot;, Ubuntu, &quot;Droid Sans&quot;, sans-serif, &quot;PingFang SC&quot;; font-size: 11px; text-rendering: geometricprecision; user-select: none;">input_1</text><title>float32[-1,112,112,3]</title></g><path class="node node-border" d="M5,0h40.09375a5,5 0 0 1 5,5v10a5,5 0 0 1 -5,5h-40.09375a5,5 0 0 1 -5,-5v-10a5,5 0 0 1 5,-5z" style="stroke: rgb(51, 51, 51); fill: none; stroke-width: 1px;"/></g><g id="node-id-0" class="node graph-node" style="" transform="translate(6.921875,81)"><g class="node-item node-item-type node-item-type-layer" transform="translate(0,0)"><path d="M5,0h80.3125a5,5 0 0 1 5,5v15a0,0 0 0 1 0,0h-90.3125a0,0 0 0 1 0,0v-15a5,5 0 0 1 5,-5z" style="stroke: rgb(0, 0, 0); fill: rgb(51, 85, 136); stroke-width: 0;"/><text x="6" y="13" style="font-family: -apple-system, BlinkMacSystemFont, &quot;Segoe WPC&quot;, &quot;Segoe UI&quot;, Ubuntu, &quot;Droid Sans&quot;, sans-serif, &quot;PingFang SC&quot;; font-size: 11px; text-rendering: geometricprecision; user-select: none; fill: rgb(255, 255, 255);">Conv2D</text><title>0</title></g><g class="node-argument-list" transform="translate(0,20)"><path d="M0,0h90.3125a0,0 0 0 1 0,0v30a0,0 0 0 1 0,0h-90.3125a0,0 0 0 1 0,0v-30a0,0 0 0 1 0,0z" style="stroke: rgb(0, 0, 0); fill: rgb(255, 255, 255); stroke-width: 0;"/><g class="node-argument"><rect rx="3" ry="3" x="3" y="3" width="84.3125" height="12" style="fill: transparent;"/><text xml:space="preserve" x="6" y="12" style="font-family: -apple-system, BlinkMacSystemFont, &quot;Segoe WPC&quot;, &quot;Segoe UI&quot;, Ubuntu, &quot;Droid Sans&quot;, sans-serif, &quot;PingFang SC&quot;; font-size: 9px; font-weight: normal; text-rendering: geometricprecision; user-select: none;"><title>float32[32,3,3,3]</title><tspan style="font-weight: bold;">filter</tspan><tspan>〈32×3×3×3〉</tspan></text></g><g class="node-argument"><rect rx="3" ry="3" x="3" y="15" width="84.3125" height="12" style="fill: transparent;"/><text xml:space="preserve" x="6" y="24" style="font-family: -apple-system, BlinkMacSystemFont, &quot;Segoe WPC&quot;, &quot;Segoe UI&quot;, Ubuntu, &quot;Droid Sans&quot;, sans-serif, &quot;PingFang SC&quot;; font-size: 9px; font-weight: normal; text-rendering: geometricprecision; user-select: none;"><title>float32[32]</title><tspan style="font-weight: bold;">bias</tspan><tspan>〈32〉</tspan></text></g><line class="node" x1="0" x2="90.3125" y1="0" y2="0" style="stroke: rgb(51, 51, 51); fill: none; stroke-width: 1px;"/></g><g class="node-item node-item-type node-item-type-activation" transform="translate(0,50)"><path d="M0,0h90.3125a0,0 0 0 1 0,0v15a5,5 0 0 1 -5,5h-80.3125a5,5 0 0 1 -5,-5v-15a0,0 0 0 1 0,0z" style="stroke: rgb(0, 0, 0); fill: rgb(112, 41, 33); stroke-width: 0;"/><text x="6" y="13" style="font-family: -apple-system, BlinkMacSystemFont, &quot;Segoe WPC&quot;, &quot;Segoe UI&quot;, Ubuntu, &quot;Droid Sans&quot;, sans-serif, &quot;PingFang SC&quot;; font-size: 11px; text-rendering: geometricprecision; user-select: none; fill: rgb(255, 255, 255);">Relu</text></g><line class="node" x1="0" x2="90.3125" y1="50" y2="50" style="stroke: rgb(51, 51, 51); fill: none; stroke-width: 1px;"/><path class="node node-border" d="M5,0h80.3125a5,5 0 0 1 5,5v60a5,5 0 0 1 -5,5h-80.3125a5,5 0 0 1 -5,-5v-60a5,5 0 0 1 5,-5z" style="stroke: rgb(51, 51, 51); fill: none; stroke-width: 1px;"/></g><g id="node-id-2" class="node graph-node" style="" transform="translate(4.4140625,192)"><g class="node-item node-item-type node-item-type-layer" transform="translate(0,0)"><path d="M5,0h85.328125a5,5 0 0 1 5,5v15a0,0 0 0 1 0,0h-95.328125a0,0 0 0 1 0,0v-15a5,5 0 0 1 5,-5z" style="stroke: rgb(0, 0, 0); fill: rgb(51, 85, 136); stroke-width: 0;"/><text x="6" y="13" style="font-family: -apple-system, BlinkMacSystemFont, &quot;Segoe WPC&quot;, &quot;Segoe UI&quot;, Ubuntu, &quot;Droid Sans&quot;, sans-serif, &quot;PingFang SC&quot;; font-size: 11px; text-rendering: geometricprecision; user-select: none; fill: rgb(255, 255, 255);">Conv2D</text><title>1</title></g><g class="node-argument-list" transform="translate(0,20)"><path d="M0,0h95.328125a0,0 0 0 1 0,0v30a0,0 0 0 1 0,0h-95.328125a0,0 0 0 1 0,0v-30a0,0 0 0 1 0,0z" style="stroke: rgb(0, 0, 0); fill: rgb(255, 255, 255); stroke-width: 0;"/><g class="node-argument"><rect rx="3" ry="3" x="3" y="3" width="89.328125" height="12" style="fill: transparent;"/><text xml:space="preserve" x="6" y="12" style="font-family: -apple-system, BlinkMacSystemFont, &quot;Segoe WPC&quot;, &quot;Segoe UI&quot;, Ubuntu, &quot;Droid Sans&quot;, sans-serif, &quot;PingFang SC&quot;; font-size: 9px; font-weight: normal; text-rendering: geometricprecision; user-select: none;"><title>float32[32,3,3,32]</title><tspan style="font-weight: bold;">filter</tspan><tspan>〈32×3×3×32〉</tspan></text></g><g class="node-argument"><rect rx="3" ry="3" x="3" y="15" width="89.328125" height="12" style="fill: transparent;"/><text xml:space="preserve" x="6" y="24" style="font-family: -apple-system, BlinkMacSystemFont, &quot;Segoe WPC&quot;, &quot;Segoe UI&quot;, Ubuntu, &quot;Droid Sans&quot;, sans-serif, &quot;PingFang SC&quot;; font-size: 9px; font-weight: normal; text-rendering: geometricprecision; user-select: none;"><title>float32[32]</title><tspan style="font-weight: bold;">bias</tspan><tspan>〈32〉</tspan></text></g><line class="node" x1="0" x2="95.328125" y1="0" y2="0" style="stroke: rgb(51, 51, 51); fill: none; stroke-width: 1px;"/></g><g class="node-item node-item-type node-item-type-activation" transform="translate(0,50)"><path d="M0,0h95.328125a0,0 0 0 1 0,0v15a5,5 0 0 1 -5,5h-85.328125a5,5 0 0 1 -5,-5v-15a0,0 0 0 1 0,0z" style="stroke: rgb(0, 0, 0); fill: rgb(112, 41, 33); stroke-width: 0;"/><text x="6" y="13" style="font-family: -apple-system, BlinkMacSystemFont, &quot;Segoe WPC&quot;, &quot;Segoe UI&quot;, Ubuntu, &quot;Droid Sans&quot;, sans-serif, &quot;PingFang SC&quot;; font-size: 11px; text-rendering: geometricprecision; user-select: none; fill: rgb(255, 255, 255);">Relu</text></g><line class="node" x1="0" x2="95.328125" y1="50" y2="50" style="stroke: rgb(51, 51, 51); fill: none; stroke-width: 1px;"/><path class="node node-border" d="M5,0h85.328125a5,5 0 0 1 5,5v60a5,5 0 0 1 -5,5h-85.328125a5,5 0 0 1 -5,-5v-60a5,5 0 0 1 5,-5z" style="stroke: rgb(51, 51, 51); fill: none; stroke-width: 1px;"/></g><g id="node-id-4" class="node graph-node" style="" transform="translate(4.4140625,303)"><g class="node-item node-item-type node-item-type-layer" transform="translate(0,0)"><path d="M5,0h85.328125a5,5 0 0 1 5,5v15a0,0 0 0 1 0,0h-95.328125a0,0 0 0 1 0,0v-15a5,5 0 0 1 5,-5z" style="stroke: rgb(0, 0, 0); fill: rgb(51, 85, 136); stroke-width: 0;"/><text x="6" y="13" style="font-family: -apple-system, BlinkMacSystemFont, &quot;Segoe WPC&quot;, &quot;Segoe UI&quot;, Ubuntu, &quot;Droid Sans&quot;, sans-serif, &quot;PingFang SC&quot;; font-size: 11px; text-rendering: geometricprecision; user-select: none; fill: rgb(255, 255, 255);">Conv2D</text><title>2</title></g><g class="node-argument-list" transform="translate(0,20)"><path d="M0,0h95.328125a0,0 0 0 1 0,0v30a0,0 0 0 1 0,0h-95.328125a0,0 0 0 1 0,0v-30a0,0 0 0 1 0,0z" style="stroke: rgb(0, 0, 0); fill: rgb(255, 255, 255); stroke-width: 0;"/><g class="node-argument"><rect rx="3" ry="3" x="3" y="3" width="89.328125" height="12" style="fill: transparent;"/><text xml:space="preserve" x="6" y="12" style="font-family: -apple-system, BlinkMacSystemFont, &quot;Segoe WPC&quot;, &quot;Segoe UI&quot;, Ubuntu, &quot;Droid Sans&quot;, sans-serif, &quot;PingFang SC&quot;; font-size: 9px; font-weight: normal; text-rendering: geometricprecision; user-select: none;"><title>float32[32,5,5,32]</title><tspan style="font-weight: bold;">filter</tspan><tspan>〈32×5×5×32〉</tspan></text></g><g class="node-argument"><rect rx="3" ry="3" x="3" y="15" width="89.328125" height="12" style="fill: transparent;"/><text xml:space="preserve" x="6" y="24" style="font-family: -apple-system, BlinkMacSystemFont, &quot;Segoe WPC&quot;, &quot;Segoe UI&quot;, Ubuntu, &quot;Droid Sans&quot;, sans-serif, &quot;PingFang SC&quot;; font-size: 9px; font-weight: normal; text-rendering: geometricprecision; user-select: none;"><title>float32[32]</title><tspan style="font-weight: bold;">bias</tspan><tspan>〈32〉</tspan></text></g><line class="node" x1="0" x2="95.328125" y1="0" y2="0" style="stroke: rgb(51, 51, 51); fill: none; stroke-width: 1px;"/></g><g class="node-item node-item-type node-item-type-activation" transform="translate(0,50)"><path d="M0,0h95.328125a0,0 0 0 1 0,0v15a5,5 0 0 1 -5,5h-85.328125a5,5 0 0 1 -5,-5v-15a0,0 0 0 1 0,0z" style="stroke: rgb(0, 0, 0); fill: rgb(112, 41, 33); stroke-width: 0;"/><text x="6" y="13" style="font-family: -apple-system, BlinkMacSystemFont, &quot;Segoe WPC&quot;, &quot;Segoe UI&quot;, Ubuntu, &quot;Droid Sans&quot;, sans-serif, &quot;PingFang SC&quot;; font-size: 11px; text-rendering: geometricprecision; user-select: none; fill: rgb(255, 255, 255);">Relu</text></g><line class="node" x1="0" x2="95.328125" y1="50" y2="50" style="stroke: rgb(51, 51, 51); fill: none; stroke-width: 1px;"/><path class="node node-border" d="M5,0h85.328125a5,5 0 0 1 5,5v60a5,5 0 0 1 -5,5h-85.328125a5,5 0 0 1 -5,-5v-60a5,5 0 0 1 5,-5z" style="stroke: rgb(51, 51, 51); fill: none; stroke-width: 1px;"/></g><g id="node-id-6" class="node graph-node" style="" transform="translate(16.620849609375,414)"><g class="node-item node-item-type node-item-type-pool" transform="translate(0,0)"><path d="M5,0h60.91455078125a5,5 0 0 1 5,5v10a5,5 0 0 1 -5,5h-60.91455078125a5,5 0 0 1 -5,-5v-10a5,5 0 0 1 5,-5z" style="stroke: rgb(0, 0, 0); fill: rgb(51, 85, 51); stroke-width: 0;"/><text x="6" y="13" style="font-family: -apple-system, BlinkMacSystemFont, &quot;Segoe WPC&quot;, &quot;Segoe UI&quot;, Ubuntu, &quot;Droid Sans&quot;, sans-serif, &quot;PingFang SC&quot;; font-size: 11px; text-rendering: geometricprecision; user-select: none; fill: rgb(255, 255, 255);">MaxPool2D</text><title>3</title></g><path class="node node-border" d="M5,0h60.91455078125a5,5 0 0 1 5,5v10a5,5 0 0 1 -5,5h-60.91455078125a5,5 0 0 1 -5,-5v-10a5,5 0 0 1 5,-5z" style="stroke: rgb(51, 51, 51); fill: none; stroke-width: 1px;"/></g><g id="node-id-7" class="node graph-node" style="" transform="translate(4.4140625,475)"><g class="node-item node-item-type node-item-type-layer" transform="translate(0,0)"><path d="M5,0h85.328125a5,5 0 0 1 5,5v15a0,0 0 0 1 0,0h-95.328125a0,0 0 0 1 0,0v-15a5,5 0 0 1 5,-5z" style="stroke: rgb(0, 0, 0); fill: rgb(51, 85, 136); stroke-width: 0;"/><text x="6" y="13" style="font-family: -apple-system, BlinkMacSystemFont, &quot;Segoe WPC&quot;, &quot;Segoe UI&quot;, Ubuntu, &quot;Droid Sans&quot;, sans-serif, &quot;PingFang SC&quot;; font-size: 11px; text-rendering: geometricprecision; user-select: none; fill: rgb(255, 255, 255);">Conv2D</text><title>4</title></g><g class="node-argument-list" transform="translate(0,20)"><path d="M0,0h95.328125a0,0 0 0 1 0,0v30a0,0 0 0 1 0,0h-95.328125a0,0 0 0 1 0,0v-30a0,0 0 0 1 0,0z" style="stroke: rgb(0, 0, 0); fill: rgb(255, 255, 255); stroke-width: 0;"/><g class="node-argument"><rect rx="3" ry="3" x="3" y="3" width="89.328125" height="12" style="fill: transparent;"/><text xml:space="preserve" x="6" y="12" style="font-family: -apple-system, BlinkMacSystemFont, &quot;Segoe WPC&quot;, &quot;Segoe UI&quot;, Ubuntu, &quot;Droid Sans&quot;, sans-serif, &quot;PingFang SC&quot;; font-size: 9px; font-weight: normal; text-rendering: geometricprecision; user-select: none;"><title>float32[64,3,3,32]</title><tspan style="font-weight: bold;">filter</tspan><tspan>〈64×3×3×32〉</tspan></text></g><g class="node-argument"><rect rx="3" ry="3" x="3" y="15" width="89.328125" height="12" style="fill: transparent;"/><text xml:space="preserve" x="6" y="24" style="font-family: -apple-system, BlinkMacSystemFont, &quot;Segoe WPC&quot;, &quot;Segoe UI&quot;, Ubuntu, &quot;Droid Sans&quot;, sans-serif, &quot;PingFang SC&quot;; font-size: 9px; font-weight: normal; text-rendering: geometricprecision; user-select: none;"><title>float32[64]</title><tspan style="font-weight: bold;">bias</tspan><tspan>〈64〉</tspan></text></g><line class="node" x1="0" x2="95.328125" y1="0" y2="0" style="stroke: rgb(51, 51, 51); fill: none; stroke-width: 1px;"/></g><g class="node-item node-item-type node-item-type-activation" transform="translate(0,50)"><path d="M0,0h95.328125a0,0 0 0 1 0,0v15a5,5 0 0 1 -5,5h-85.328125a5,5 0 0 1 -5,-5v-15a0,0 0 0 1 0,0z" style="stroke: rgb(0, 0, 0); fill: rgb(112, 41, 33); stroke-width: 0;"/><text x="6" y="13" style="font-family: -apple-system, BlinkMacSystemFont, &quot;Segoe WPC&quot;, &quot;Segoe UI&quot;, Ubuntu, &quot;Droid Sans&quot;, sans-serif, &quot;PingFang SC&quot;; font-size: 11px; text-rendering: geometricprecision; user-select: none; fill: rgb(255, 255, 255);">Relu</text></g><line class="node" x1="0" x2="95.328125" y1="50" y2="50" style="stroke: rgb(51, 51, 51); fill: none; stroke-width: 1px;"/><path class="node node-border" d="M5,0h85.328125a5,5 0 0 1 5,5v60a5,5 0 0 1 -5,5h-85.328125a5,5 0 0 1 -5,-5v-60a5,5 0 0 1 5,-5z" style="stroke: rgb(51, 51, 51); fill: none; stroke-width: 1px;"/></g><g id="node-id-9" class="node graph-node" style="" transform="translate(16.620849609375,586)"><g class="node-item node-item-type node-item-type-pool" transform="translate(0,0)"><path d="M5,0h60.91455078125a5,5 0 0 1 5,5v10a5,5 0 0 1 -5,5h-60.91455078125a5,5 0 0 1 -5,-5v-10a5,5 0 0 1 5,-5z" style="stroke: rgb(0, 0, 0); fill: rgb(51, 85, 51); stroke-width: 0;"/><text x="6" y="13" style="font-family: -apple-system, BlinkMacSystemFont, &quot;Segoe WPC&quot;, &quot;Segoe UI&quot;, Ubuntu, &quot;Droid Sans&quot;, sans-serif, &quot;PingFang SC&quot;; font-size: 11px; text-rendering: geometricprecision; user-select: none; fill: rgb(255, 255, 255);">MaxPool2D</text><title>5</title></g><path class="node node-border" d="M5,0h60.91455078125a5,5 0 0 1 5,5v10a5,5 0 0 1 -5,5h-60.91455078125a5,5 0 0 1 -5,-5v-10a5,5 0 0 1 5,-5z" style="stroke: rgb(51, 51, 51); fill: none; stroke-width: 1px;"/></g><g id="node-id-10" class="node graph-node" style="" transform="translate(4.4140625,647)"><g class="node-item node-item-type node-item-type-layer" transform="translate(0,0)"><path d="M5,0h85.328125a5,5 0 0 1 5,5v15a0,0 0 0 1 0,0h-95.328125a0,0 0 0 1 0,0v-15a5,5 0 0 1 5,-5z" style="stroke: rgb(0, 0, 0); fill: rgb(51, 85, 136); stroke-width: 0;"/><text x="6" y="13" style="font-family: -apple-system, BlinkMacSystemFont, &quot;Segoe WPC&quot;, &quot;Segoe UI&quot;, Ubuntu, &quot;Droid Sans&quot;, sans-serif, &quot;PingFang SC&quot;; font-size: 11px; text-rendering: geometricprecision; user-select: none; fill: rgb(255, 255, 255);">Conv2D</text><title>6</title></g><g class="node-argument-list" transform="translate(0,20)"><path d="M0,0h95.328125a0,0 0 0 1 0,0v30a0,0 0 0 1 0,0h-95.328125a0,0 0 0 1 0,0v-30a0,0 0 0 1 0,0z" style="stroke: rgb(0, 0, 0); fill: rgb(255, 255, 255); stroke-width: 0;"/><g class="node-argument"><rect rx="3" ry="3" x="3" y="3" width="89.328125" height="12" style="fill: transparent;"/><text xml:space="preserve" x="6" y="12" style="font-family: -apple-system, BlinkMacSystemFont, &quot;Segoe WPC&quot;, &quot;Segoe UI&quot;, Ubuntu, &quot;Droid Sans&quot;, sans-serif, &quot;PingFang SC&quot;; font-size: 9px; font-weight: normal; text-rendering: geometricprecision; user-select: none;"><title>float32[32,1,1,64]</title><tspan style="font-weight: bold;">filter</tspan><tspan>〈32×1×1×64〉</tspan></text></g><g class="node-argument"><rect rx="3" ry="3" x="3" y="15" width="89.328125" height="12" style="fill: transparent;"/><text xml:space="preserve" x="6" y="24" style="font-family: -apple-system, BlinkMacSystemFont, &quot;Segoe WPC&quot;, &quot;Segoe UI&quot;, Ubuntu, &quot;Droid Sans&quot;, sans-serif, &quot;PingFang SC&quot;; font-size: 9px; font-weight: normal; text-rendering: geometricprecision; user-select: none;"><title>float32[32]</title><tspan style="font-weight: bold;">bias</tspan><tspan>〈32〉</tspan></text></g><line class="node" x1="0" x2="95.328125" y1="0" y2="0" style="stroke: rgb(51, 51, 51); fill: none; stroke-width: 1px;"/></g><g class="node-item node-item-type node-item-type-activation" transform="translate(0,50)"><path d="M0,0h95.328125a0,0 0 0 1 0,0v15a5,5 0 0 1 -5,5h-85.328125a5,5 0 0 1 -5,-5v-15a0,0 0 0 1 0,0z" style="stroke: rgb(0, 0, 0); fill: rgb(112, 41, 33); stroke-width: 0;"/><text x="6" y="13" style="font-family: -apple-system, BlinkMacSystemFont, &quot;Segoe WPC&quot;, &quot;Segoe UI&quot;, Ubuntu, &quot;Droid Sans&quot;, sans-serif, &quot;PingFang SC&quot;; font-size: 11px; text-rendering: geometricprecision; user-select: none; fill: rgb(255, 255, 255);">Relu</text></g><line class="node" x1="0" x2="95.328125" y1="50" y2="50" style="stroke: rgb(51, 51, 51); fill: none; stroke-width: 1px;"/><path class="node node-border" d="M5,0h85.328125a5,5 0 0 1 5,5v60a5,5 0 0 1 -5,5h-85.328125a5,5 0 0 1 -5,-5v-60a5,5 0 0 1 5,-5z" style="stroke: rgb(51, 51, 51); fill: none; stroke-width: 1px;"/></g><g id="node-id-12" class="node graph-node" style="" transform="translate(16.620849609375,758)"><g class="node-item node-item-type node-item-type-pool" transform="translate(0,0)"><path d="M5,0h60.91455078125a5,5 0 0 1 5,5v10a5,5 0 0 1 -5,5h-60.91455078125a5,5 0 0 1 -5,-5v-10a5,5 0 0 1 5,-5z" style="stroke: rgb(0, 0, 0); fill: rgb(51, 85, 51); stroke-width: 0;"/><text x="6" y="13" style="font-family: -apple-system, BlinkMacSystemFont, &quot;Segoe WPC&quot;, &quot;Segoe UI&quot;, Ubuntu, &quot;Droid Sans&quot;, sans-serif, &quot;PingFang SC&quot;; font-size: 11px; text-rendering: geometricprecision; user-select: none; fill: rgb(255, 255, 255);">MaxPool2D</text><title>7</title></g><path class="node node-border" d="M5,0h60.91455078125a5,5 0 0 1 5,5v10a5,5 0 0 1 -5,5h-60.91455078125a5,5 0 0 1 -5,-5v-10a5,5 0 0 1 5,-5z" style="stroke: rgb(51, 51, 51); fill: none; stroke-width: 1px;"/></g><g id="node-id-13" class="node graph-node" style="" transform="translate(14.578125,819)"><g class="node-item node-item-type node-item-type-shape" transform="translate(0,0)"><path d="M5,0h65a5,5 0 0 1 5,5v15a0,0 0 0 1 0,0h-75a0,0 0 0 1 0,0v-15a5,5 0 0 1 5,-5z" style="stroke: rgb(0, 0, 0); fill: rgb(108, 79, 71); stroke-width: 0;"/><text x="6" y="13" style="font-family: -apple-system, BlinkMacSystemFont, &quot;Segoe WPC&quot;, &quot;Segoe UI&quot;, Ubuntu, &quot;Droid Sans&quot;, sans-serif, &quot;PingFang SC&quot;; font-size: 11px; text-rendering: geometricprecision; user-select: none; fill: rgb(255, 255, 255);">Reshape</text><title>8</title></g><g class="node-argument-list" transform="translate(0,20)"><path d="M0,0h75a0,0 0 0 1 0,0v13a5,5 0 0 1 -5,5h-65a5,5 0 0 1 -5,-5v-13a0,0 0 0 1 0,0z" style="stroke: rgb(0, 0, 0); fill: rgb(255, 255, 255); stroke-width: 0;"/><g class="node-argument"><rect rx="3" ry="3" x="3" y="3" width="69" height="12" style="fill: transparent;"/><text xml:space="preserve" x="6" y="12" style="font-family: -apple-system, BlinkMacSystemFont, &quot;Segoe WPC&quot;, &quot;Segoe UI&quot;, Ubuntu, &quot;Droid Sans&quot;, sans-serif, &quot;PingFang SC&quot;; font-size: 9px; font-weight: normal; text-rendering: geometricprecision; user-select: none;"><title>int32[2]</title><tspan style="font-weight: bold;">shape</tspan><tspan>〈2〉</tspan></text></g><line class="node" x1="0" x2="75" y1="0" y2="0" style="stroke: rgb(51, 51, 51); fill: none; stroke-width: 1px;"/></g><path class="node node-border" d="M5,0h65a5,5 0 0 1 5,5v28a5,5 0 0 1 -5,5h-65a5,5 0 0 1 -5,-5v-28a5,5 0 0 1 5,-5z" style="stroke: rgb(51, 51, 51); fill: none; stroke-width: 1px;"/></g><g id="node-id-14" class="node graph-node" style="" transform="translate(0,898)"><g class="node-item node-item-type node-item-type-layer" transform="translate(0,0)"><path d="M5,0h94.15625a5,5 0 0 1 5,5v15a0,0 0 0 1 0,0h-104.15625a0,0 0 0 1 0,0v-15a5,5 0 0 1 5,-5z" style="stroke: rgb(0, 0, 0); fill: rgb(51, 85, 136); stroke-width: 0;"/><text x="6" y="13" style="font-family: -apple-system, BlinkMacSystemFont, &quot;Segoe WPC&quot;, &quot;Segoe UI&quot;, Ubuntu, &quot;Droid Sans&quot;, sans-serif, &quot;PingFang SC&quot;; font-size: 11px; text-rendering: geometricprecision; user-select: none; fill: rgb(255, 255, 255);">FullyConnected</text><title>9</title></g><g class="node-argument-list" transform="translate(0,20)"><path d="M0,0h104.15625a0,0 0 0 1 0,0v25a5,5 0 0 1 -5,5h-94.15625a5,5 0 0 1 -5,-5v-25a0,0 0 0 1 0,0z" style="stroke: rgb(0, 0, 0); fill: rgb(255, 255, 255); stroke-width: 0;"/><g class="node-argument"><rect rx="3" ry="3" x="3" y="3" width="98.15625" height="12" style="fill: transparent;"/><text xml:space="preserve" x="6" y="12" style="font-family: -apple-system, BlinkMacSystemFont, &quot;Segoe WPC&quot;, &quot;Segoe UI&quot;, Ubuntu, &quot;Droid Sans&quot;, sans-serif, &quot;PingFang SC&quot;; font-size: 9px; font-weight: normal; text-rendering: geometricprecision; user-select: none;"><title>float32[256,1152]</title><tspan style="font-weight: bold;">weights</tspan><tspan>〈256×1152〉</tspan></text></g><g class="node-argument"><rect rx="3" ry="3" x="3" y="15" width="98.15625" height="12" style="fill: transparent;"/><text xml:space="preserve" x="6" y="24" style="font-family: -apple-system, BlinkMacSystemFont, &quot;Segoe WPC&quot;, &quot;Segoe UI&quot;, Ubuntu, &quot;Droid Sans&quot;, sans-serif, &quot;PingFang SC&quot;; font-size: 9px; font-weight: normal; text-rendering: geometricprecision; user-select: none;"><title>float32[256]</title><tspan style="font-weight: bold;">bias</tspan><tspan>〈256〉</tspan></text></g><line class="node" x1="0" x2="104.15625" y1="0" y2="0" style="stroke: rgb(51, 51, 51); fill: none; stroke-width: 1px;"/></g><path class="node node-border" d="M5,0h94.15625a5,5 0 0 1 5,5v40a5,5 0 0 1 -5,5h-94.15625a5,5 0 0 1 -5,-5v-40a5,5 0 0 1 5,-5z" style="stroke: rgb(51, 51, 51); fill: none; stroke-width: 1px;"/></g><g class="node" style="" transform="translate(30.0859375,989)"><g class="node-item graph-item-output" transform="translate(0,0)"><path d="M5,0h33.984375a5,5 0 0 1 5,5v10a5,5 0 0 1 -5,5h-33.984375a5,5 0 0 1 -5,-5v-10a5,5 0 0 1 5,-5z" style="stroke: rgb(0, 0, 0); fill: rgb(238, 238, 238); stroke-width: 0;"/><text x="6" y="13" style="font-family: -apple-system, BlinkMacSystemFont, &quot;Segoe WPC&quot;, &quot;Segoe UI&quot;, Ubuntu, &quot;Droid Sans&quot;, sans-serif, &quot;PingFang SC&quot;; font-size: 11px; text-rendering: geometricprecision; user-select: none;">dense</text><title>float32[-1,256]</title></g><path class="node node-border" d="M5,0h33.984375a5,5 0 0 1 5,5v10a5,5 0 0 1 -5,5h-33.984375a5,5 0 0 1 -5,-5v-10a5,5 0 0 1 5,-5z" style="stroke: rgb(51, 51, 51); fill: none; stroke-width: 1px;"/></g></g></g></svg>